<?xml version="1.0" encoding="utf-8" ?><svg xmlns="http://www.w3.org/2000/svg" xmlns:xlink="http://www.w3.org/1999/xlink" width="400" height="400" viewBox="0 0 400 400"><path fill="#F6F6F3" transform="scale(0.195312 0.195312)" d="M0 0L2048 0L2048 2048L0 2048L0 0Z"/><path fill="#171717" transform="scale(0.195312 0.195312)" d="M599.819 1002.05C701.291 1003.29 785.859 1049.19 830.551 1142.09C866.824 1066.72 930.96 1020 1015.48 1015.81C1015.56 1027.16 1015.52 1038.5 1015.36 1049.84C997.672 1050.62 980.213 1054.16 963.619 1060.34C919.512 1076.7 883.78 1110.03 864.38 1152.88C844.441 1196.9 844.814 1240.52 861.614 1285.25C868.653 1302.93 878.802 1319.22 891.582 1333.32C923.117 1368.92 967.754 1390.18 1015.26 1392.25L1015.47 1426.26C928.952 1423.04 849.708 1365.55 824.798 1281.63C816.946 1255.18 818.271 1239.84 815.785 1214.52C811.887 1174.82 789.969 1128.24 761.489 1100.06C715.473 1054.53 663.144 1036.56 599.788 1035.94L599.819 1002.05Z"/><path fill="#171717" transform="scale(0.195312 0.195312)" d="M1447.49 632.397L1449.25 632.57C1451.64 636.082 1450.73 660.232 1450.69 665.97L1449.84 666.024C1376.47 671.192 1311.07 726.286 1293.67 797.755C1287.68 822.358 1288.77 839.696 1287.06 864.357C1283.11 921.078 1261.88 972.003 1224.16 1014.74C1174.47 1071.03 1114.76 1097.33 1041.11 1102.39L1039.06 1102.23C1036.63 1098.55 1037.74 1076.67 1037.84 1070.87C1044.66 1071.03 1051.49 1070.82 1058.3 1070.25C1161.26 1061.96 1248.71 974.021 1254.49 870.998C1255.27 856.986 1254.76 842.988 1255.22 828.993C1256.71 783.8 1273.73 740.5 1303.4 706.384C1340.61 663.221 1390.5 636.542 1447.49 632.397Z"/><path fill="#171717" transform="scale(0.195312 0.195312)" d="M600.257 632.411C701.365 637.883 790.765 721.832 793.898 824.703C794.202 834.7 793.957 844.736 794.138 854.738C794.524 881.827 800.952 908.487 812.954 932.775C833.367 974.356 869.426 1006.15 913.234 1021.2C907.502 1024.5 902.184 1028.23 896.715 1031.94C891.185 1035.86 885.481 1040.72 880.192 1045.04C814.979 1013.21 770.232 950.622 761.209 878.618C759.036 861.145 760.452 846.836 759.959 829.559C758.933 791.969 744.927 755.893 720.322 727.457C690.044 691.448 646.448 669.269 599.514 665.999C599.451 657.321 598.998 640.403 600.257 632.411Z"/><path fill="#DDA46D" transform="scale(0.195312 0.195312)" d="M1012.55 1128.25L1013.8 1128.32C1016.61 1132.08 1015.37 1156.24 1015.32 1162.5C993.231 1166.8 974.294 1178.08 965.602 1199.57C952.723 1231.42 970.909 1264.05 1001.46 1276.05C1032.22 1288.12 1067.48 1270.8 1078.74 1240.52C1084.17 1226.05 1083.5 1210.01 1076.88 1196.04C1068.55 1178.61 1055.46 1170.12 1037.83 1164.12L1037.76 1128.09C1066.29 1134.48 1080.73 1144.32 1098.72 1167.07C1106.52 1178.66 1112.02 1190.42 1114.56 1204.21C1119.1 1228.34 1113.77 1253.28 1099.77 1273.44C1085.08 1294.22 1062.72 1308.3 1037.63 1312.56C1012.28 1316.88 986.267 1310.74 965.529 1295.54C945.733 1281.43 932.384 1260.01 928.445 1236.02C919.507 1180.28 958.901 1136.81 1012.55 1128.25Z"/><path fill="#171717" transform="scale(0.195312 0.195312)" d="M790.263 670.664C794.925 672.172 806.706 690.38 809.615 694.638C844.425 745.598 853.679 799.048 851.692 859.203C852.104 914.881 895.213 965.858 952.198 967.651C972.634 968.294 993.836 961.505 1015.18 960.75L1015.17 994.59C1005.5 994.653 998.3 995.075 988.759 996.217C970.146 998.215 967.265 1002.61 947.288 1001.08C877.553 995.748 827.711 943.507 818.663 875.519C814.521 844.401 821.098 822.278 812.863 788.635C803.048 748.532 790.637 722.463 763.755 691.036L790.263 670.664Z"/><path fill="#171717" transform="scale(0.195312 0.195312)" d="M1437.01 1057.47L1447.81 1057.37L1447.78 1091.28C1372.16 1089.3 1305.87 1128.76 1287.33 1205.82C1284.46 1217.75 1285.15 1231.37 1284.47 1243.66C1283.41 1261.32 1280.45 1278.82 1275.65 1295.84C1263.23 1339 1243.61 1368.6 1214.35 1401.33L1203.59 1394.01C1197.58 1389.83 1191.58 1385.31 1185.67 1380.96C1220.36 1346.01 1240.44 1308.63 1248.39 1259.53C1250.98 1244.59 1250.29 1229 1251.82 1214.01C1259.5 1138.69 1319.62 1079.25 1392.07 1062.92C1407.79 1059.38 1421.08 1058.13 1437.01 1057.47Z"/><path fill="#171717" transform="scale(0.195312 0.195312)" d="M599.982 1057.42C602.695 1057.37 605.41 1057.36 608.124 1057.37C690.353 1057.9 765.971 1110.99 787.941 1190.97C794.317 1214.18 792.948 1225.73 795.462 1248.32C800.554 1298.19 822.521 1344.83 857.727 1380.51L846.501 1388.34L830.399 1400.56C794.792 1362.84 773.095 1321.1 763.56 1269.67C760.048 1252.74 760.466 1235.41 758.466 1218.35C752.905 1170.92 721.436 1129.57 679.173 1108.27C652.931 1095.05 628.63 1091.22 599.804 1091.31L599.982 1057.42Z"/><path fill="#171717" transform="scale(0.195312 0.195312)" d="M566.631 689.347L577.011 688.766L577.015 722.965C551.621 724.932 530.321 732.552 510.415 748.921C487.222 767.931 472.494 795.348 469.447 825.182C466.693 854.966 476.097 884.598 495.522 907.343C517.506 933.368 544.418 945.682 577.89 948.556L577.964 982.617C570.322 982.068 563.815 981.098 556.226 979.968C533.089 974.864 511.612 966.331 492.575 951.931C461.185 928.226 440.579 892.952 435.345 853.966C430.523 816.072 440.946 777.814 464.322 747.602C490.209 713.985 524.902 694.939 566.631 689.347Z"/><path fill="#171717" transform="scale(0.195312 0.195312)" d="M1473.79 688.944C1496.77 689.5 1517.09 695.293 1537.29 706.345C1572.16 725.044 1598.12 756.894 1609.4 794.82C1620.24 831.802 1615.6 871.603 1596.54 905.097C1575.63 942.462 1540.76 966.279 1500.18 977.87C1490.12 980.522 1480.83 981.469 1470.51 982.38C1470.61 970.994 1470.5 959.608 1470.18 948.227C1494.43 947.7 1516.93 938.207 1536.14 923.321C1602.24 872.088 1592.26 773.947 1518.8 735.06C1503.33 726.875 1491.47 724.798 1473.88 722.836L1473.79 688.944Z"/><path fill="#171717" transform="scale(0.195312 0.195312)" d="M1008.52 1072.33C1011.86 1072.09 1011.66 1071.6 1014.37 1072.84C1017.16 1078.48 1015.71 1097.69 1015.57 1105.54C991.421 1107.05 971.561 1113.96 952.118 1128.64C926.867 1147.64 910.203 1175.89 905.799 1207.19C897.909 1266.51 938.077 1319.19 995.25 1332.93C1001.81 1334.51 1008.65 1335.24 1015.34 1336.05C1015.42 1347.19 1015.35 1358.33 1015.14 1369.47C1006.03 1368.95 1001.11 1368.45 992.163 1366.83C930.615 1352.92 881.73 1306.88 873.12 1243.01C867.559 1203.73 878.069 1163.86 902.273 1132.43C929.636 1097.07 964.58 1077.83 1008.52 1072.33Z"/><path fill="#171717" transform="scale(0.195312 0.195312)" d="M582.716 743.384C639.183 743.512 679.054 781.912 680.923 838.309L646.204 837.847C645.612 816.946 638.803 800.705 620.899 788.446C607.178 778.96 590.24 775.337 573.839 778.381C538.225 785.16 520.215 815.733 527.59 851.08C536.488 875.566 552.531 888.774 578.094 893.666L578.051 927.2C558.469 925.927 539.781 918.534 524.628 906.065C505.451 890.161 493.373 867.294 491.048 842.489C486.329 786.754 529.328 747.608 582.716 743.384Z"/><path fill="#171717" transform="scale(0.195312 0.195312)" d="M1462.56 743.413C1485.59 744.137 1506.24 750.307 1524.17 765.259C1590.11 820.233 1554.21 919.396 1470.21 927.291C1470.03 916.273 1470.13 904.931 1470.1 893.885C1493.9 889.642 1508.26 878.603 1519.27 857.301C1521.28 851.291 1522.91 846.147 1523.44 839.742C1524.71 825.092 1520.09 810.54 1510.61 799.304C1499.83 786.712 1484.48 778.944 1467.95 777.725C1451.2 776.409 1434.63 781.934 1422.02 793.039C1408.01 805.495 1403.53 819.579 1402.67 837.483L1367.7 837.307C1367.81 814.518 1376.34 792.574 1391.64 775.687C1410.8 754.624 1434.56 744.892 1462.56 743.413Z"/><path fill="#171717" transform="scale(0.195312 0.195312)" d="M569.702 632.413C572.358 632.165 573.395 631.712 575.62 633.038C578.467 639.079 577.057 657.616 576.965 665.795C563.298 667.075 552.624 668.313 539.262 672.037C494.089 684.437 455.761 714.404 432.829 755.252C409.611 797.095 405.713 840.146 418.991 885.823L392.596 894.583C389.302 895.973 389.963 896.189 386.775 895.793C380.556 888.383 378.556 867.931 377.677 858.302C372.333 803.984 388.959 749.788 423.844 707.811C460.949 663.256 512.196 637.521 569.702 632.413Z"/><path fill="#171717" transform="scale(0.195312 0.195312)" d="M1670.02 670.862C1673.98 673.777 1681.86 684.725 1684.84 689.091C1707.12 721.607 1721.73 758.758 1727.57 797.743C1738.27 874.337 1718.94 932.769 1673.29 993.448L1659.52 986.093L1643.15 976.955C1673.46 941.379 1691.72 897.108 1695.28 850.506C1700 790.491 1680.07 735.684 1641.29 690.277C1651.04 684.065 1660.62 677.591 1670.02 670.862Z"/><path fill="#171717" transform="scale(0.195312 0.195312)" d="M1433 1002.42C1436.74 1002.04 1443.86 1001.96 1447.82 1001.8L1447.9 1035.72C1400.78 1035.17 1352.16 1047.46 1312.93 1074.04C1270.03 1103.21 1240.62 1148.35 1231.26 1199.36L1213.76 1197.79C1209.49 1197.64 1201.82 1196.6 1197.31 1196.14C1223.7 1074.46 1311.69 1010.78 1433 1002.42Z"/><path fill="#171717" transform="scale(0.195312 0.195312)" d="M1258.62 670.781L1288.82 688.263C1254.32 728.799 1235.64 771.194 1232.16 824.995C1230.97 843.42 1233.57 862.066 1229.94 880.523C1222.8 916.891 1206.19 948.77 1183.81 977.801L1153.09 963.038C1200.19 906.045 1196.57 876.13 1199.16 809.034C1200.98 762.16 1229.17 707.415 1258.62 670.781Z"/><path fill="#171717" transform="scale(0.195312 0.195312)" d="M1195.43 1220.08L1228.72 1220.95C1229.03 1260.71 1217.84 1299.7 1196.5 1333.24C1166.33 1381.04 1120.77 1409.77 1066.23 1421.9C1055.6 1423.8 1048.32 1424.77 1037.57 1425.76L1037.61 1392.28C1050.92 1390.44 1063.21 1388.41 1076.07 1384.39C1150.1 1361.24 1193.43 1295.95 1195.43 1220.08Z"/><path fill="#171717" transform="scale(0.195312 0.195312)" d="M347.123 718.073C358.089 722.755 369.141 727.231 380.275 731.498C334.926 809.222 347.534 905.722 402.756 974.932L389.591 984.328L374.984 995.033C316.144 927.576 303.151 820.309 337.383 739.287C340.415 732.11 343.734 725.083 347.123 718.073Z"/><path fill="#171717" transform="scale(0.195312 0.195312)" d="M1473.71 632.495C1515.81 632.392 1562.8 651.189 1595.11 677.611C1639.11 713.6 1665.43 758.38 1671.65 814.796C1665.98 815.349 1643.2 812.545 1636.43 811.813C1631.73 779.572 1617.69 749.412 1596.05 725.062C1564.2 688.945 1521.62 668.852 1473.77 666.055C1473.69 654.869 1473.67 643.682 1473.71 632.495Z"/><path fill="#171717" transform="scale(0.195312 0.195312)" d="M565.549 577.4L577.152 576.753L577.057 610.791C503.844 610.303 431.299 652.741 391.116 713.008L377.317 706.688L358.653 698.47C364.485 689.499 370.814 680.86 377.61 672.595C425.286 615.321 491.981 584.12 565.549 577.4Z"/><path fill="#171717" transform="scale(0.195312 0.195312)" d="M425.737 907.033C426.047 907.039 426.373 906.953 426.668 907.05C429.593 908.011 438.466 925.438 440.9 928.96C445.694 936.005 451.049 942.65 456.914 948.831C491.075 984.755 528.81 1000.45 577.533 1001.72L577.411 1035.27C567.757 1035.07 560.657 1034.53 551.038 1033.5C540.014 1031.88 529.133 1029.39 518.496 1026.07C462.806 1008.4 421.361 970.152 394.819 918.796L425.737 907.033Z"/><path fill="#171717" transform="scale(0.195312 0.195312)" d="M1618.61 910.553C1627.53 912.626 1643.11 917.879 1652.72 920.615C1620.56 981.485 1570.81 1019.23 1502.95 1032.39C1491.64 1034.28 1481.96 1034.96 1470.56 1035.37L1470.75 1001.97C1486.86 1002.14 1502.13 999.448 1517.49 994.639C1560.99 981.073 1597.34 950.842 1618.61 910.553Z"/><path fill="#171717" transform="scale(0.195312 0.195312)" d="M1169.45 1212.22C1170.16 1212.38 1170.87 1212.55 1171.57 1212.72C1171.75 1213.5 1171.93 1214.28 1172.11 1215.06C1175.05 1277.24 1136.82 1337.4 1078.5 1359.89C1064.87 1365.14 1054.1 1367.24 1039.84 1369.43C1038.47 1368.95 1039.27 1369.35 1037.72 1367.78C1036.93 1358.59 1037.43 1345.05 1037.51 1335.54C1061.72 1332.84 1084.37 1322.26 1101.97 1305.42C1127.23 1281.09 1137.58 1252.47 1138.28 1218.05L1169.45 1212.22Z"/><path fill="#171717" transform="scale(0.195312 0.195312)" d="M599.767 689.035C634.267 691.374 666.791 705.982 691.457 730.217C724.484 762.025 736.569 795.109 737.263 840.177L702.771 839.195C704.508 776.955 659.66 731.64 599.706 722.804L599.767 689.035Z"/><path fill="#171717" transform="scale(0.195312 0.195312)" d="M1443.71 689.329C1447.19 688.894 1446.58 688.528 1449.51 689.741C1452.16 694.924 1450.9 714.98 1450.85 722.609C1435.86 725.563 1424.1 727.88 1410.3 734.978C1370.02 755.699 1346.86 792.162 1345.83 837.06L1318.75 836.97C1315.54 837.108 1314.86 837.376 1311.8 836.315C1310.13 832.463 1312 822.545 1312.63 818.21C1316.29 792.874 1325.95 769.858 1341.46 749.45C1366.2 716.62 1402.99 694.988 1443.71 689.329Z"/><path fill="#171717" transform="scale(0.195312 0.195312)" d="M417.991 991.869C422.103 994.384 437.367 1008.84 444.533 1013.81C483.647 1040.86 529.805 1055.89 577.343 1057.08L577.394 1090.97C569.743 1090.69 563.364 1090.34 555.759 1089.55C493.438 1083.77 435.111 1056.34 390.899 1012.04C399.35 1005.38 409.273 998.344 417.991 991.869Z"/><path fill="#171717" transform="scale(0.195312 0.195312)" d="M1626.87 992.81C1636.74 998.933 1646.64 1005 1656.57 1011.02C1613.95 1055.87 1558.97 1080.54 1498.24 1088.71C1488.58 1089.77 1480.58 1090.54 1470.81 1090.96L1470.82 1057.14C1531.52 1054.49 1582.52 1034.8 1626.87 992.81Z"/><path fill="#171717" transform="scale(0.195312 0.195312)" d="M1473.44 577.061C1543.79 577.254 1603.16 607.479 1654.33 653.801L1640.56 663.883L1626.79 674.477C1581.39 634.234 1534.2 613.053 1473.44 610.598L1473.44 577.061Z"/><path fill="#171717" transform="scale(0.195312 0.195312)" d="M599.815 577.237C668.241 579.826 725.966 606.479 775.674 652.899L763.5 662.448L748.357 673.964C706.397 636.574 656.599 612.415 599.629 610.739C599.562 599.571 599.625 588.403 599.815 577.237Z"/><path fill="#171717" transform="scale(0.195312 0.195312)" d="M1440.72 577.42L1450.05 576.944C1450.31 588.018 1450.36 599.095 1450.23 610.17C1393.03 614.865 1349.14 631.976 1306.22 670.943L1295.2 664.801L1275.12 652.596C1324.55 608.464 1373.34 582.816 1440.72 577.42Z"/><path fill="#171717" transform="scale(0.195312 0.195312)" d="M875.311 1396.65C877.844 1397.53 894.691 1411.07 899.332 1413.77C937.346 1435.86 971.468 1446.4 1015.56 1447.93L1015.49 1482.12C1008.44 1482.07 1000.84 1481.35 993.763 1480.82C934.542 1473.66 894.162 1454.23 848.147 1417.88C858.003 1410.71 865.922 1404.44 875.311 1396.65Z"/><path fill="#171717" transform="scale(0.195312 0.195312)" d="M1167.45 1397.77C1173.4 1400.98 1189.12 1414.64 1195.81 1419.59C1156.94 1453.2 1113.9 1470.87 1063.82 1479.36C1055.29 1480.53 1046.42 1481.02 1037.81 1481.63L1037.75 1448.1C1088.09 1443.2 1127.89 1430.52 1167.45 1397.77Z"/><path fill="#171717" transform="scale(0.195312 0.195312)" d="M1138.9 980.732C1142.73 981.823 1164.69 992.581 1169.62 994.919C1140.04 1026.68 1108.88 1043.09 1066.25 1049.65C1055.29 1050.94 1048.71 1051.1 1037.84 1051.14L1037.76 1018.02C1082.71 1017.88 1105.46 1010.33 1138.9 980.732Z"/><path fill="#171717" transform="scale(0.195312 0.195312)" d="M1637.72 835.016C1649.56 835.698 1661.12 836.704 1673.05 837.291C1672.82 847.582 1671.86 857.844 1670.2 868.003C1668.39 879.539 1665.13 888.732 1661.89 899.785C1657.87 900.258 1641.71 894.9 1636.76 893.413C1633.66 892.494 1630.57 891.536 1627.49 890.542C1634.48 871.06 1637.16 855.67 1637.72 835.016Z"/><path fill="#171717" transform="scale(0.195312 0.195312)" d="M1037.56 960.52C1068.66 961.439 1083.06 965.1 1112.11 974.96C1107.56 978.313 1103.64 981.005 1098.8 983.956C1078.34 996.949 1060.35 995.736 1037.72 994.541C1037.88 983.2 1037.82 971.858 1037.56 960.52Z"/><path fill="#171717" transform="scale(0.195312 0.195312)" d="M1335.86 850.32L1337.67 851.824C1338.45 859.422 1329.15 883.661 1326.09 891.938C1294.63 977.288 1233.61 1059.44 1146.99 1093.89C1110.32 1108.47 1076.78 1114.52 1038.21 1108.97L1037.76 1108.04C1039.61 1104.8 1054.98 1107.88 1059.92 1107.9C1181.51 1108.32 1275.28 1010.84 1317.62 904.38C1325.02 885.777 1329.54 869.242 1335.86 850.32Z"/><path fill="#171717" transform="scale(0.195312 0.195312)" d="M1436.85 961.306C1439.87 960.834 1440.79 960.303 1443.45 961.652C1441.46 965.181 1426.76 966.39 1422.16 967.408C1310.24 992.187 1185.76 1077.38 1148.91 1188.77L1148.17 1191.28L1146.64 1191.67L1145.89 1189.6C1148.05 1172.18 1170.18 1133.04 1180.5 1118.98C1239.03 1039.32 1340.04 977.828 1436.85 961.306Z"/><path fill="#171717" transform="scale(0.195312 0.195312)" d="M598.011 958.271C606.915 956.995 623.751 960.642 632.964 962.15C698.699 972.915 755.445 1010.43 802.238 1056.26C807.767 1061.68 826.221 1078.02 826.323 1085.03C820.023 1081.15 808.603 1066.89 802.641 1061.06C757.883 1017.28 708.219 982.531 646.213 968.268C636.108 966.006 625.922 964.119 615.677 962.611C610.016 961.801 600.905 962.815 598.011 958.271Z"/><path fill="#171717" transform="scale(0.195312 0.195312)" d="M713.552 863.462C717.244 866.065 719.514 883.714 721.638 891.013C728.004 912.929 737.256 933.902 749.151 953.378C776.354 998.276 810.918 1031.61 852.893 1061.9C855.214 1063.57 854.656 1063.56 855.435 1066.37C850.116 1064.15 841.835 1057.99 837.148 1054.43C781.9 1012.42 735.074 954.434 716.893 886.573C715.178 880.172 712.729 869.894 713.552 863.462Z"/></svg>