<?xml version="1.0" encoding="UTF-8"?>
<svg id="Layer_1" xmlns="http://www.w3.org/2000/svg" version="1.1" viewBox="0 0 800 394.2">
  <!-- Generator: Adobe Illustrator 30.3.0, SVG Export Plug-In . SVG Version: 2.1.3 Build 182)  -->
  <defs>
    <style>
      .st0 {
        opacity: .4;
      }

      .st0, .st1, .st2, .st3, .st4, .st5, .st6, .st7 {
        fill: none;
      }

      .st0, .st1, .st3, .st4, .st5, .st6, .st7 {
        stroke: #1a1715;
      }

      .st0, .st2, .st6, .st8, .st9 {
        isolation: isolate;
      }

      .st0, .st4, .st6 {
        stroke-width: .5px;
      }

      .st1 {
        stroke-width: 1.5px;
      }

      .st2 {
        opacity: .5;
        stroke: #e8a87c;
        stroke-width: .6px;
      }

      .st3, .st5 {
        stroke-width: .8px;
      }

      .st4 {
        stroke-dasharray: 2 2;
      }

      .st10, .st8, .st9 {
        fill: #1a1715;
      }

      .st5 {
        stroke-dasharray: 3 3;
      }

      .st11 {
        opacity: .7;
      }

      .st6 {
        opacity: .3;
      }

      .st8 {
        font-size: 10px;
      }

      .st8, .st9 {
        font-family: CourierNewPSMT, 'Courier New';
      }

      .st12 {
        fill: #e8a87c;
      }

      .st9 {
        font-size: 11px;
        letter-spacing: .1em;
        opacity: .6;
      }
    </style>
  </defs>
  <path class="st1" d="M200,132.6v160h400v-160H200Z"/>
  <path class="st1" d="M200,132.6l60-90h340v90H200Z"/>
  <path class="st7" d="M290,107.6l45-55h225v55h-270Z"/>
  <line class="st6" x1="345" y1="72.6" x2="545" y2="72.6"/>
  <line class="st6" x1="355" y1="84.6" x2="540" y2="84.6"/>
  <line class="st6" x1="350" y1="96.6" x2="535" y2="96.6"/>
  <circle class="st12" cx="440" cy="72.6" r="4"/>
  <circle class="st2" cx="440" cy="72.6" r="9"/>
  <rect class="st3" x="220" y="147.6" width="120" height="14"/>
  <g class="st11">
    <circle class="st10" cx="230" cy="154.6" r="1.2"/>
    <circle class="st10" cx="243" cy="154.6" r="1.2"/>
    <circle class="st10" cx="256" cy="154.6" r="1.2"/>
    <circle class="st10" cx="269" cy="154.6" r="1.2"/>
    <circle class="st10" cx="282" cy="154.6" r="1.2"/>
    <circle class="st10" cx="295" cy="154.6" r="1.2"/>
    <circle class="st10" cx="308" cy="154.6" r="1.2"/>
    <circle class="st10" cx="321" cy="154.6" r="1.2"/>
    <circle class="st10" cx="334" cy="154.6" r="1.2"/>
  </g>
  <line class="st1" x1="365" y1="160.6" x2="365" y2="137.6"/>
  <circle class="st10" cx="365" cy="134.6" r="3"/>
  <line class="st1" x1="385" y1="160.6" x2="385" y2="137.6"/>
  <circle class="st10" cx="385" cy="134.6" r="3"/>
  <rect class="st5" x="410" y="177.6" width="170" height="95"/>
  <circle class="st7" cx="445" cy="217.6" r="22"/>
  <circle class="st10" cx="445" cy="217.6" r="4"/>
  <circle class="st0" cx="445" cy="217.6" r="12"/>
  <circle class="st7" cx="545" cy="217.6" r="22"/>
  <circle class="st10" cx="545" cy="217.6" r="4"/>
  <circle class="st0" cx="545" cy="217.6" r="12"/>
  <line class="st7" x1="467" y1="217.6" x2="523" y2="217.6"/>
  <g>
    <text class="st8" transform="translate(680 67.6)"><tspan x="0" y="0">TRANSLUCENT</tspan></text>
    <text class="st8" transform="translate(680 80.6)"><tspan x="0" y="0">SCREEN</tspan></text>
    <line class="st4" x1="675" y1="75.6" x2="565" y2="82.6"/>
    <text class="st8" transform="translate(102 157.6)"><tspan x="0" y="0">KEYBOARD</tspan></text>
    <line class="st4" x1="155" y1="154.6" x2="218" y2="154.6"/>
    <text class="st8" transform="translate(114 140.6)"><tspan x="0" y="0">LEVERS</tspan></text>
    <line class="st4" x1="155" y1="137.6" x2="363" y2="137.6"/>
    <text class="st8" transform="translate(680 217.6)"><tspan x="0" y="0">MICROFILM</tspan></text>
    <text class="st8" transform="translate(680 230.6)"><tspan x="0" y="0">STORAGE</tspan></text>
    <line class="st4" x1="675" y1="222.6" x2="585" y2="222.6"/>
  </g>
  <text class="st9" transform="translate(270.4 362.6)"><tspan x="0" y="0">THE MEMEX · VANNEVAR BUSH · 1945</tspan></text>
</svg>