<?xml version="1.0" encoding="UTF-8"?>
<svg id="Layer_1" data-name="Layer 1" xmlns="http://www.w3.org/2000/svg" viewBox="0 0 247.25 58.85">
  <path d="M18.14,8.96v11h14.87v6.61h-14.73v19.79c0,3.41,2.43,5.31,6.79,5.31,1.41,0,6.96-.04,7.63-.11v6.54c-.63.11-7.1.21-8.26.21-10.12,0-14.31-3.45-14.31-11.99v-19.76H0v-6.61h10.12v-11h8.02Z"/>
  <path d="M62.23,29.57c1.58-7.42,5.87-10.86,13.18-10.86,2.18,0,4.18.28,5.52.81v8.89c-1.72-.67-4.25-1.09-6.36-1.09-8.89,0-13.57,4.85-13.57,13.75v11.04h11.46v6.12h-26.82v-6.12h7.49v-26.26h-8.23v-6.12h16.14v9.84h1.2Z"/>
  <path d="M89.68,47.25c0-6.89,4.99-10.97,14.2-11.53l9.63-.56v-3.23c0-3.97-2.57-6.22-7.07-6.22-3.76,0-6.5,1.62-7.35,4.43h-8.02c.7-6.64,6.93-11.04,15.57-11.04,9.53,0,14.94,4.68,14.94,12.9v26.23h-7.77v-5.38h-.74c-1.86,3.83-5.98,6.01-11.21,6.01-7.31,0-12.2-4.64-12.2-11.6ZM113.52,44.19v-3.52l-8.4.46c-4.82.28-7.31,2.21-7.31,5.62s2.6,5.41,6.71,5.41c5.2,0,9-3.34,9-7.98Z"/>
  <path d="M135.25,58.22v-6.54h12.69v-25.42h-12.27v-6.54h20.25v31.96h12.09v6.54h-32.77ZM145.72,5.59c0-3.3,2.46-5.59,5.94-5.59s5.98,2.29,5.98,5.59-2.46,5.59-5.98,5.59-5.94-2.29-5.94-5.59Z"/>
  <path d="M179.75,58.22v-6.54h12.62V11.39h-12.2v-6.54h20.36v46.83h11.99v6.54h-32.77Z"/>
  <path d="M232.91,24.57c0-4.04,3.23-7.31,7.17-7.31s7.17,3.27,7.17,7.31-3.23,7.35-7.17,7.35-7.17-3.3-7.17-7.35ZM232.91,51.36c0-4.04,3.23-7.31,7.17-7.31s7.17,3.27,7.17,7.31-3.23,7.35-7.17,7.35-7.17-3.34-7.17-7.35Z"/>
</svg>